<svg width="176" height="60" viewBox="0 0 176 60" fill="none" xmlns="http://www.w3.org/2000/svg">
<g clip-path="url(#clip0_2071_603)">
<path d="M10.6263 4.35374V21.8732H6.16867V4.35374H0V0.116211H16.8149V4.35374H10.6263Z" fill="black"/>
<path d="M18.3725 10.7978L21.0312 0.116211H25.8634L21.9988 10.7978H18.3696H18.3725Z" fill="black"/>
<path d="M42.6954 17.6357H53.3246V21.8732H37.0801V17.6357L47.6383 4.35374H37.588V0.116211H53.2508L53.265 4.35374L42.6983 17.6357H42.6954Z" fill="black"/>
<path d="M74.0583 21.8732L72.0635 14.0128L70.4405 5.35363H70.0886L68.4656 14.0128L66.4709 21.8732H60.9094L55.3877 0.116211H59.9731L62.6147 10.5231L63.7185 16.4601L64.8223 10.5231L67.4583 0.116211H73.0708L75.7125 10.5231L76.8163 16.4601L77.9201 10.5231L80.5561 0.116211H85.1414L79.6197 21.8732H74.0583Z" fill="black"/>
<path d="M127.258 17.6357V21.8732H113.317V0.116211H117.775V17.6357H127.258Z" fill="black"/>
<path d="M134.956 4.35657V8.61676H145.772V21.8732H130.498V17.6357H141.314V12.8571H130.498V0.116211H145.772V4.35657H134.956Z" fill="black"/>
<path d="M154.918 4.35374V8.72156H164.4V12.9591H154.918V17.6357H165.11V21.8732H150.46V0.116211H165.11V4.35374H154.918Z" fill="black"/>
<path d="M19.1529 59.1724H13.6738L5.94449 49.2244V59.1696H1.48682V37.4126H5.94449V46.8394L13.2567 37.4126H18.6592L10.5185 47.9498L19.1529 59.1724Z" fill="black"/>
<path d="M21.9736 59.1696V37.4126H26.4313V54.9292H35.1821V37.4126H39.6397V59.1696H21.9736Z" fill="black"/>
<path d="M58.3185 46.5249V37.4125H62.7762V59.1695H57.6517L48.3363 44.2843L48.6569 50.0571V59.1666H44.1992V37.4097H49.3265L58.6363 52.2863L58.3157 46.522L58.3185 46.5249Z" fill="black"/>
<path d="M71.8166 41.6531V45.9132H82.633V59.1697H67.3589V54.9321H78.1753V50.1536H67.3589V37.4155H82.633V41.6559H71.8166V41.6531Z" fill="black"/>
<path d="M96.4628 41.6501V59.1696H92.0051V41.6501H85.8364V37.4126H102.651V41.6501H96.4628Z" fill="black"/>
<path d="M120.039 59.1696V50.1535H110.335V59.1696H105.877V37.4126H110.335V45.916H120.039V37.4126H124.497V59.1696H120.039Z" fill="black"/>
<path d="M129.196 59.1696V37.4126H133.653V54.9292H142.404V37.4126H146.862V59.1696H129.196Z" fill="black"/>
<path d="M151.549 59.1696V37.4126H156.007V59.1696H151.549Z" fill="black"/>
<path d="M165.186 41.6531V45.9132H176.003V59.1697H160.729V54.9321H171.545V50.1536H160.729V37.4155H176.003V41.6559H165.186V41.6531Z" fill="black"/>
<path d="M105.378 4.24886V17.9982H92.5443V4.24886H105.378ZM109.634 0H88.2881V22.247H109.634V0Z" fill="black"/>
</g>
<defs>
<clipPath id="clip0_2071_603">
<rect width="176" height="59.1724" fill="white"/>
</clipPath>
</defs>
</svg>
